<?xml version="1.0" encoding="iso-8859-1"?>
<!-- Uploaded to: SVG Repo, www.svgrepo.com, Generator: SVG Repo Mixer Tools -->
<svg fill="#000000" height="800px" width="800px" version="1.1" id="Layer_1" xmlns="http://www.w3.org/2000/svg" xmlns:xlink="http://www.w3.org/1999/xlink" 
	 viewBox="0 0 512 512" xml:space="preserve">
<g>
	<g>
		<path d="M263.306,17.546c-1.295-2.872-4.154-4.718-7.306-4.718s-6.01,1.846-7.306,4.718
			c-22.841,50.593-34.915,109.394-34.915,170.046c0,60.014,11.828,118.21,34.205,168.44v135.125c0,4.427,3.589,8.017,8.017,8.017
			c4.427,0,8.017-3.589,8.017-8.017V356.032c22.377-50.23,34.204-108.427,34.204-168.441
			C298.221,126.939,286.148,68.138,263.306,17.546z M256,333.578c-17.171-44.404-26.188-94.468-26.188-145.987
			c0-51.519,9.017-101.582,26.188-145.987c17.172,44.405,26.188,94.469,26.188,145.987C282.188,239.11,273.171,289.173,256,333.578z
			"/>
	</g>
</g>
<g>
	<g>
		<path d="M234.666,383.662c-31.245-19.984-69.288-34.222-110.018-41.174c-40.71-6.949-81.656-6.203-118.41,2.16
			c-3.151,0.717-5.564,3.256-6.119,6.439c-0.555,3.184,0.855,6.39,3.579,8.131c31.245,19.984,69.288,34.222,110.018,41.174
			c18.424,3.145,36.895,4.714,55.005,4.714c21.906,0,43.285-2.296,63.404-6.874c3.151-0.717,5.564-3.256,6.119-6.439
			C238.8,388.61,237.39,385.403,234.666,383.662z M116.415,384.588c-30.848-5.265-60.01-14.897-85.505-28.156
			c28.99-4.035,60.058-3.428,91.042,1.861c30.847,5.265,60.01,14.897,85.504,28.156
			C178.464,390.484,147.398,389.877,116.415,384.588z"/>
	</g>
</g>
<g>
	<g>
		<path d="M237.581,420.108c-1.191-2.49-3.58-4.194-6.323-4.509c-23.496-2.688-47.097,0.886-68.249,10.337
			c-21.284,9.51-38.779,24.381-50.596,43.005c-1.479,2.331-1.655,5.26-0.465,7.751c1.191,2.492,3.579,4.195,6.323,4.509
			c5.077,0.58,10.158,0.869,15.219,0.869c18.361,0,36.449-3.798,53.03-11.206c21.284-9.51,38.779-24.381,50.596-43.005
			C238.595,425.527,238.771,422.599,237.581,420.108z M179.979,456.226c-14.192,6.342-29.661,9.662-45.4,9.807
			c9.354-10.643,21.237-19.319,34.972-25.457c14.192-6.342,29.661-9.662,45.4-9.807
			C205.597,441.411,193.714,450.088,179.979,456.226z"/>
	</g>
</g>
<g>
	<g>
		<path d="M238.03,360.599c-14.719-49.335-41.408-98.431-77.181-141.981c-35.786-43.566-78.487-78.932-123.486-102.276
			c-2.857-1.483-6.322-1.113-8.801,0.938c-2.48,2.051-3.492,5.386-2.573,8.469c14.719,49.334,41.407,98.43,77.181,141.981
			c35.786,43.566,78.487,78.932,123.486,102.276c1.165,0.604,2.431,0.901,3.69,0.901c1.829,0,3.643-0.625,5.111-1.84
			C237.937,367.016,238.949,363.681,238.03,360.599z M115.56,257.553c-29.727-36.188-52.917-76.29-67.781-117.016
			c36.531,21.966,71.035,52.167,100.68,88.256c29.727,36.189,52.915,76.29,67.781,117.017
			C179.708,323.845,145.205,293.643,115.56,257.553z"/>
	</g>
</g>
<g>
	<g>
		<path d="M511.881,351.088c-0.556-3.184-2.968-5.723-6.119-6.439c-36.756-8.362-77.701-9.108-118.41-2.16
			c-40.73,6.952-78.773,21.19-110.018,41.174c-2.722,1.741-4.133,4.947-3.579,8.131c0.556,3.184,2.968,5.723,6.119,6.439
			c20.123,4.578,41.497,6.874,63.404,6.874c18.108,0,36.583-1.569,55.005-4.714c40.73-6.952,78.773-21.19,110.018-41.174
			C511.026,357.478,512.436,354.272,511.881,351.088z M395.588,384.588c-30.983,5.289-62.051,5.897-91.041,1.861
			c25.495-13.258,54.656-22.89,85.504-28.156c30.983-5.289,62.051-5.896,91.041-1.861
			C455.596,369.692,426.435,379.322,395.588,384.588z"/>
	</g>
</g>
<g>
	<g>
		<path d="M399.586,468.943c-11.815-18.624-29.311-33.495-50.596-43.005c-21.151-9.451-44.75-13.026-68.249-10.337
			c-2.743,0.313-5.132,2.017-6.323,4.509c-1.191,2.492-1.015,5.419,0.465,7.751c11.817,18.623,29.312,33.494,50.596,43.005
			c16.583,7.41,34.666,11.207,53.03,11.206c5.059,0,10.143-0.289,15.219-0.869c2.743-0.313,5.132-2.017,6.323-4.509
			C401.242,474.202,401.067,471.274,399.586,468.943z M332.022,456.226c-13.735-6.138-25.618-14.814-34.972-25.457
			c15.739,0.146,31.208,3.466,45.4,9.807c13.735,6.138,25.618,14.814,34.972,25.457
			C361.685,465.887,346.212,462.567,332.022,456.226z"/>
	</g>
</g>
<g>
	<g>
		<path d="M483.44,117.281c-2.479-2.05-5.944-2.421-8.801-0.938c-44.999,23.344-87.699,58.709-123.486,102.276
			c-35.774,43.551-62.463,92.646-77.181,141.981c-0.919,3.083,0.093,6.418,2.573,8.469c1.469,1.214,3.283,1.84,5.111,1.84
			c1.259,0,2.525-0.296,3.69-0.901c44.999-23.342,87.699-58.709,123.486-102.276c35.774-43.551,62.463-92.646,77.181-141.981
			C486.932,122.667,485.92,119.332,483.44,117.281z M396.442,257.554c-29.646,36.09-64.15,66.292-100.68,88.256
			c14.864-40.727,38.054-80.827,67.781-117.017c29.646-36.09,64.149-66.292,100.68-88.256
			C449.357,181.264,426.169,221.365,396.442,257.554z"/>
	</g>
</g>
</svg>