<svg xmlns="http://www.w3.org/2000/svg" viewBox="0 0 120 120" role="img" aria-label="Feuille de cannabis">
  <defs>
    <linearGradient id="pinkGlow" x1="0%" y1="0%" x2="100%" y2="100%">
      <stop offset="0%" stop-color="#ff5cc8"/>
      <stop offset="100%" stop-color="#ff28ae"/>
    </linearGradient>
  </defs>
  <g fill="url(#pinkGlow)" stroke="#ff5cc8" stroke-width="2">
    <path d="M60 10c-5 18-14 34-24 48-11 16-20 30-18 44 10-12 20-22 28-30-2 8-1 16 5 24 4 5 9 9 15 10 7-1 12-5 17-10 5-8 7-16 5-24 8 8 18 18 28 30 2-14-7-28-18-44-10-14-19-30-24-48z"/>
    <path d="M60 10c-7 10-16 18-26 24 6 7 14 11 22 14 8-3 16-7 22-14-10-6-19-14-26-24z"/>
  </g>
</svg>
